<svg width="24" height="24" xmlns="http://www.w3.org/2000/svg" xmlns:xlink="http://www.w3.org/1999/xlink" viewBox="0 0 24 24">
  <title>Pieces</title>
  <desc>Pieces button for Hastings 1066</desc>
  <rect fill="white" height="100%" width="100%"/>

  <g id="norman_cavalry" transform="scale(0.2) translate(15,15)">
    <rect fill="red" width="60" stroke-width="3%" height="60" stroke="black"/>

    <g id="facing_arrow">
      <polygon points="30,2 33,7 27,7"/>
    </g>

    <g id="scale" transform="scale(0.6)">
      <g transform="translate(20,8) scale(0.1,0.1)">
        <path d="M533.7,86.3c4,1.2,5.2,18.7-2.1,33.3           c-4.1,8.2-9.9,13.7-14.9,17.3c-2.5,1.8-5.5,8.7-4.4,11.7c0.7,2.2,1.7,4.6,2.9,7.1c6.3,13.4,14,13.6,17.8,23.1           c6.5,15.9-6.4,27.1,52,86.7c0,0,12.9,15.5-3,37.8c0,0-3.9,22.8-20.6,12c0,0-13.7,11.2-39.5-10.7c0,0-7.9-29-57.5-31.3           c0,0-30.5,4.3-40.8-21.9c-9.6,1.3-17.1,3.9-22.7,6.4c-27.8,12.5-32.8,34.5-71.3,84.7c-13.4,17.5-15.3,18-20.1,26.9           c-13.5,25.2-14.8,50.6-13.8,67.5c0,0-9,90-49.1,109.8C224.7,557.5,32.9,297.9,67.9,266c8.6-5.9,21.8-14.1,39-21.5           c26.5-11.3,42.8-13.2,58.9-16.3c49.2-12.5,69.8-39.3,90.7-56.7c32.1-26.6,151.1-73,199.6-56.7c0,0,21.7-14.4,24.3-18.7           c2.6-4.3,17.4-23.9,29.5-18.7c0.3,0.8-1.9,14.5-7.8,24.9c-3.6,6.4-5.1,13.2-5.1,13.2c1.4-0.3,3.4-0.8,5.8-1.7           C523.5,106.3,529,84.9,533.7,86.3z" id="horse_path"/>
      </g>

      <g font-size="30" text-anchor="middle" id="attributes">
        <g id="shield_wall_defense">
          <text x="85" y="90">6</text>
        </g>
        <g id="shield_wall_attack">
          <text x="15" y="90">8</text>
        </g>
        <g id="morale_rating">
          <text font-size="22" x="50" y="90">B</text>
        </g>
      </g>
    </g>
  </g>

  <g id="saxon_bowman" transform="scale(0.2) translate(50,40)">
    <rect fill="rgb(250,200,15)" width="60" stroke-width="3%" height="60" stroke="black"/>

    <g id="facing_arrow">
      <polygon points="30,2 33,7 27,7"/>
    </g>

    <g id="scale" transform="scale(0.6)">
      <g transform="translate(18,18) scale(0.4,0.4)">
        <path class="cls-1" d="M32.15,88.94l1.33-1.33-7.06-.47,5.31-5.31,7,.52L40,81.12l-7.07-.47,6.46-6.47,7,.52,6.29-6.29L2.16,17.88A14.22,14.22,0,0,1,.51,16.64a1.48,1.48,0,1,1,2-2.24C8.32,19.48,16.82,16.1,27.05,12c12.48-5,28.63-12.13,45.34-5.93,7.19,2.67,16.49,9.65,24.8,17.8L112.36,8.74l-7.22-.49L108.42,5l14.4-5-5.14,14.23-3.27,3.28-.33-7L98.91,25.63c8.14,8.29,15.14,17.56,17.91,24.69,6.16,15.86-1.1,32.08-6.18,44.74-4.29,10.69-7.88,19.63-2.23,25.28a1.49,1.49,0,0,1-2.11,2.1,13.34,13.34,0,0,1-1.82-2.24L54.41,70.13l-6.29,6.29.66,7.17-6.47,6.46-.61-7.21-1.23,1.23.66,7.16-5.31,5.31-.61-7.21-1.33,1.34.65,7.16-6.62,6.62-.74-8.82-8.66-.58,6.62-6.62,7,.51ZM54.37,66.73,91.31,29.79c-8-7.87-16.94-14.59-23.74-17.12C51.94,6.87,40.15,10,28.15,14.8c-7.84,3.11-14.75,5.86-20.68,5l46.9,46.9ZM93,31.51,56.09,68.45l46.5,46.5c-.75-5.93,2.09-13,5.3-21,4.87-12.15,8.12-24,2.38-38.77C107.64,48.42,100.9,39.52,93,31.51Z"/>
      </g>

      <g font-size="30" text-anchor="middle" id="attributes">
        <g id="normal_attack">
          <text x="15" y="90">1</text>
        </g>
        <g id="normal_defense">
          <text x="85" y="90">2</text>
        </g>
        <g id="morale_rating">
          <text font-size="22" x="50" y="90">C</text>
        </g>
        <g id="missile_type">
          <text font-size="22" x="80" y="35">B</text>
        </g>
      </g>
    </g>
  </g>
</svg>