<svg width="32" height="24" xmlns:xlink="http://www.w3.org/1999/xlink" xmlns="http://www.w3.org/2000/svg">
  <title>Switch Sides</title>
  <desc>The Retire/Switch Sides icon for Vassal</desc>

  <defs>
    <rect fill="rgb(180,100,40)" width="75" id="saxon" height="75"/>

    <g stroke-width="2" id="border" stroke="black">
      <line y2="1" x1="0" x2="75" y1="1"/>
      <line y2="75" x1="1" x2="1" y1="1"/>
      <line y2="74" x1="0" x2="75" y1="74"/>
      <line y2="75" x1="74" x2="74" y1="1"/>
    </g>

    <clipPath id="block">
      <use xlink:href="#saxon"/>
    </clipPath>

    <rect fill="red" width="75" id="norman" height="75"/>

    <g stroke-width="2" id="border" stroke="black">
      <line y2="1" x1="0" x2="75" y1="1"/>
      <line y2="75" x1="1" x2="1" y1="1"/>
      <line y2="74" x1="0" x2="75" y1="74"/>
      <line y2="75" x1="74" x2="74" y1="1"/>
    </g>

    <path class="st0" d="M474.25,193.656c-20.859,0-37.766,16.906-37.766,37.75c0,14.078,7.797,26.203,19.203,32.703         c-5.594,19.203-16.5,39.156-34.031,49.141c-35.063,19.906-66.703-11.859-48.219-97.75c18.078-2.813,31.969-18.313,31.969-37.188         c0-20.844-16.906-37.75-37.766-37.75s-37.75,16.906-37.75,37.75c0,13.469,7.109,25.219,17.703,31.891         c-10.063,49.516-25.453,69.281-44.406,66.688c-28.328-3.859-32.656-42.203-32.797-113.219         c13.703-5.672,23.359-19.141,23.359-34.875c0-20.859-16.906-37.766-37.75-37.766s-37.75,16.906-37.75,37.766         c0,15.75,9.656,29.219,23.375,34.875c-0.156,71.016-4.5,109.359-32.813,113.219c-18.969,2.594-34.359-17.172-44.406-66.688         c10.594-6.688,17.703-18.422,17.703-31.891c0-20.844-16.906-37.75-37.766-37.75c-20.844,0-37.75,16.906-37.75,37.75         c0,18.875,13.891,34.391,31.969,37.188c18.484,85.891-13.156,117.656-48.219,97.75c-17.531-9.984-28.438-29.938-34.031-49.156         c11.406-6.484,19.188-18.609,19.188-32.688c0-20.844-16.906-37.75-37.75-37.75S0,210.563,0,231.406         C0,250.438,14.125,266,32.406,268.625l26.281,152.344H256h197.313l26.281-152.344C497.875,266,512,250.438,512,231.406         C512,210.563,495.094,193.656,474.25,193.656z" id="crown"/>

    <clipPath id="block">
      <use xlink:href="#norman"/>
    </clipPath>
  </defs>

  <rect fill="white" height="100%" width="100%"/>

  <g font-family="EB Garamond" id="usa" transform="scale(0.2) translate(10,10)">
    <use clip-path="url(#block)" xlink:href="#saxon"/>
    <use clip-path="url(#block)" xlink:href="#border"/>

    <rect fill="red" x="5" width="65" height="65" y="5" stroke="black"/>
    <g fill="white" transform="translate(18,12) scale(0.07,0.07)">
      <use xlink:href="#crown"/>
    </g>
    <text x="37.5" font-size="16" y="60" text-anchor="middle">
      <tspan>Normans</tspan>
    </text>
  </g>

  <g font-family="EB Garamond" id="csa" transform="scale(0.2) translate(70,35)">
    <use clip-path="url(#block)" xlink:href="#norman"/>
    <use clip-path="url(#block)" xlink:href="#border"/>

    <rect fill="rgb(180,100,40)" x="5" width="65" height="65" y="5" stroke="black"/>
    <use fill="white" transform="translate(18,12) scale(0.07,0.07)" xlink:href="#crown"/>
    <text x="37.5" font-size="16" y="60" text-anchor="middle">
      <tspan>Saxons</tspan>
    </text>
  </g>
</svg>