<svg xmlns="http://www.w3.org/2000/svg" xmlns:xlink="http://www.w3.org/1999/xlink" viewBox="0 0 3000 2500">
  <defs>
    <filter id="paper">
      <feTurbulence
        type="fractalNoise"
        baseFrequency="0.04"
        result="noise"
        numOctaves="5"
      />

      <feDiffuseLighting in="noise" surfaceScale="2" result="texture">
        <feDistantLight azimuth="45" elevation="75"/>
      </feDiffuseLighting>

      <feComposite
        in="SourceGraphic"
        in2="texture"
        operator="arithmetic"
        k1="1"
        k2="0"
        k3="0"
        k4="0"
      />
    </filter>

    <polygon
      id="level5"
      filter="url(#paper)"
      fill="rgb(200,125,80)"
      stroke="#444444"
      points="50.24,0.25 100.23,29.112 100.23,86.835 50.24,115.697 0.25,86.835 0.25,29.112 50.24,0.25"
    />

    <polygon
      id="level4"
      filter="url(#paper)"
      fill="rgb(215,200,90)"
      stroke="#444444"
      points="50.24,0.25 100.23,29.112 100.23,86.835 50.24,115.697 0.25,86.835 0.25,29.112 50.24,0.25"
    />

    <polygon
      id="level3"
      filter="url(#paper)"
      fill="rgb(150,180,100)"
      stroke="#444444"
      points="50.24,0.25 100.23,29.112 100.23,86.835 50.24,115.697 0.25,86.835 0.25,29.112 50.24,0.25"
    />

    <polygon
      id="level2"
      filter="url(#paper)"
      fill="rgb(120,200,150)"
      stroke="#444444"
      points="50.24,0.25 100.23,29.112 100.23,86.835 50.24,115.697 0.25,86.835 0.25,29.112 50.24,0.25"
    />

    <polygon
      id="level1"
      filter="url(#paper)"
      fill="rgb(200,230,150)"
      stroke="#444444"
      points="50.24,0.25 100.23,29.112 100.23,86.835 50.24,115.697 0.25,86.835 0.25,29.112 50.24,0.25"
    />
  </defs>

  <g id="row1">
    <use id="0129" xlink:href="#level4" transform="translate(50,0)"/>
    <use id="0128" xlink:href="#level4" transform="translate(150,0)"/>
    <use id="0127" xlink:href="#level4" transform="translate(250,0)"/>
    <use id="0126" xlink:href="#level4" transform="translate(350,0)"/>
    <use id="0125" xlink:href="#level4" transform="translate(450,0)"/>
    <use id="0124" xlink:href="#level4" transform="translate(550,0)"/>
    <use id="0123" xlink:href="#level4" transform="translate(650,0)"/>
    <use id="0122" xlink:href="#level4" transform="translate(750,0)"/>
    <use id="0121" xlink:href="#level4" transform="translate(850,0)"/>
    <use id="0120" xlink:href="#level4" transform="translate(950,0)"/>
    <use id="0119" xlink:href="#level4" transform="translate(1050,0)"/>
    <use id="0118" xlink:href="#level4" transform="translate(1150,0)"/>
    <use id="0117" xlink:href="#level4" transform="translate(1250,0)"/>
    <use id="0116" xlink:href="#level4" transform="translate(1350,0)"/>
    <use id="0115" xlink:href="#level4" transform="translate(1450,0)"/>
    <use id="0114" xlink:href="#level4" transform="translate(1550,0)"/>
    <use id="0113" xlink:href="#level4" transform="translate(1650,0)"/>
    <use id="0112" xlink:href="#level4" transform="translate(1750,0)"/>
    <use id="0111" xlink:href="#level3" transform="translate(1850,0)"/>
    <use id="0110" xlink:href="#level3" transform="translate(1950,0)"/>
    <use id="0109" xlink:href="#level3" transform="translate(2050,0)"/>
    <use id="0108" xlink:href="#level2" transform="translate(2150,0)"/>
    <use id="0107" xlink:href="#level2" transform="translate(2250,0)"/>
    <use id="0106" xlink:href="#level2" transform="translate(2350,0)"/>
    <use id="0105" xlink:href="#level2" transform="translate(2450,0)"/>
    <use id="0104" xlink:href="#level2" transform="translate(2550,0)"/>
    <use id="0103" xlink:href="#level2" transform="translate(2650,0)"/>
    <use id="0102" xlink:href="#level2" transform="translate(2750,0)"/>
    <use id="0101" xlink:href="#level1" transform="translate(2850,0)"/>
  </g>
  <g id="row2">
    <use id="0229" xlink:href="#level4" transform="translate(0,86)"/>
    <use id="0228" xlink:href="#level3" transform="translate(100,86)"/>
    <use id="0227" xlink:href="#level3" transform="translate(200,86)"/>
    <use id="0226" xlink:href="#level3" transform="translate(300,86)"/>
    <use id="0225" xlink:href="#level4" transform="translate(400,86)"/>
    <use id="0224" xlink:href="#level4" transform="translate(500,86)"/>
    <use id="0223" xlink:href="#level3" transform="translate(600,86)"/>
    <use id="0222" xlink:href="#level3" transform="translate(700,86)"/>
    <use id="0221" xlink:href="#level4" transform="translate(800,86)"/>
    <use id="0220" xlink:href="#level4" transform="translate(900,86)"/>
    <use id="0219" xlink:href="#level4" transform="translate(1000,86)"/>
    <use id="0218" xlink:href="#level4" transform="translate(1100,86)"/>
    <use id="0217" xlink:href="#level4" transform="translate(1200,86)"/>
    <use id="0216" xlink:href="#level4" transform="translate(1300,86)"/>
    <use id="0215" xlink:href="#level4" transform="translate(1400,86)"/>
    <use id="0214" xlink:href="#level4" transform="translate(1500,86)"/>
    <use id="0213" xlink:href="#level4" transform="translate(1600,86)"/>
    <use id="0212" xlink:href="#level4" transform="translate(1700,86)"/>
    <use id="0211" xlink:href="#level3" transform="translate(1800,86)"/>
    <use id="0210" xlink:href="#level3" transform="translate(1900,86)"/>
    <use id="0209" xlink:href="#level3" transform="translate(2000,86)"/>
    <use id="0208" xlink:href="#level3" transform="translate(2100,86)"/>
    <use id="0207" xlink:href="#level2" transform="translate(2200,86)"/>
    <use id="0206" xlink:href="#level2" transform="translate(2300,86)"/>
    <use id="0205" xlink:href="#level2" transform="translate(2400,86)"/>
    <use id="0204" xlink:href="#level2" transform="translate(2500,86)"/>
    <use id="0203" xlink:href="#level2" transform="translate(2600,86)"/>
    <use id="0202" xlink:href="#level2" transform="translate(2700,86)"/>
    <use id="0201" xlink:href="#level2" transform="translate(2800,86)"/>
  </g>
  <g id="row3">
    <use id="0329" xlink:href="#level3" transform="translate(50,172)"/>
    <use id="0328" xlink:href="#level3" transform="translate(150,172)"/>
    <use id="0327" xlink:href="#level3" transform="translate(250,172)"/>
    <use id="0326" xlink:href="#level4" transform="translate(350,172)"/>
    <use id="0325" xlink:href="#level3" transform="translate(450,172)"/>
    <use id="0324" xlink:href="#level3" transform="translate(550,172)"/>
    <use id="0323" xlink:href="#level3" transform="translate(650,172)"/>
    <use id="0322" xlink:href="#level3" transform="translate(750,172)"/>
    <use id="0321" xlink:href="#level3" transform="translate(850,172)"/>
    <use id="0320" xlink:href="#level4" transform="translate(950,172)"/>
    <use id="0319" xlink:href="#level4" transform="translate(1050,172)"/>
    <use id="0318" xlink:href="#level4" transform="translate(1150,172)"/>
    <use id="0317" xlink:href="#level4" transform="translate(1250,172)"/>
    <use id="0316" xlink:href="#level4" transform="translate(1350,172)"/>
    <use id="0315" xlink:href="#level4" transform="translate(1450,172)"/>
    <use id="0314" xlink:href="#level4" transform="translate(1550,172)"/>
    <use id="0313" xlink:href="#level4" transform="translate(1650,172)"/>
    <use id="0312" xlink:href="#level3" transform="translate(1750,172)"/>
    <use id="0311" xlink:href="#level3" transform="translate(1850,172)"/>
    <use id="0310" xlink:href="#level3" transform="translate(1950,172)"/>
    <use id="0309" xlink:href="#level3" transform="translate(2050,172)"/>
    <use id="0308" xlink:href="#level2" transform="translate(2150,172)"/>
    <use id="0307" xlink:href="#level2" transform="translate(2250,172)"/>
    <use id="0306" xlink:href="#level2" transform="translate(2350,172)"/>
    <use id="0305" xlink:href="#level2" transform="translate(2450,172)"/>
    <use id="0304" xlink:href="#level2" transform="translate(2550,172)"/>
    <use id="0303" xlink:href="#level2" transform="translate(2650,172)"/>
    <use id="0302" xlink:href="#level2" transform="translate(2750,172)"/>
    <use id="0301" xlink:href="#level1" transform="translate(2850,172)"/>
  </g>
  <g id="row4">
    <use id="0429" xlink:href="#level3" transform="translate(0,258)"/>
    <use id="0428" xlink:href="#level3" transform="translate(100,258)"/>
    <use id="0427" xlink:href="#level3" transform="translate(200,258)"/>
    <use id="0426" xlink:href="#level3" transform="translate(300,258)"/>
    <use id="0425" xlink:href="#level3" transform="translate(400,258)"/>
    <use id="0424" xlink:href="#level3" transform="translate(500,258)"/>
    <use id="0423" xlink:href="#level3" transform="translate(600,258)"/>
    <use id="0422" xlink:href="#level3" transform="translate(700,258)"/>
    <use id="0421" xlink:href="#level3" transform="translate(800,258)"/>
    <use id="0420" xlink:href="#level4" transform="translate(900,258)"/>
    <use id="0419" xlink:href="#level4" transform="translate(1000,258)"/>
    <use id="0418" xlink:href="#level4" transform="translate(1100,258)"/>
    <use id="0417" xlink:href="#level4" transform="translate(1200,258)"/>
    <use id="0416" xlink:href="#level5" transform="translate(1300,258)"/>
    <use id="0415" xlink:href="#level5" transform="translate(1400,258)"/>
    <use id="0414" xlink:href="#level5" transform="translate(1500,258)"/>
    <use id="0413" xlink:href="#level4" transform="translate(1600,258)"/>
    <use id="0412" xlink:href="#level4" transform="translate(1700,258)"/>
    <use id="0411" xlink:href="#level4" transform="translate(1800,258)"/>
    <use id="0410" xlink:href="#level3" transform="translate(1900,258)"/>
    <use id="0409" xlink:href="#level3" transform="translate(2000,258)"/>
    <use id="0408" xlink:href="#level3" transform="translate(2100,258)"/>
    <use id="0407" xlink:href="#level3" transform="translate(2200,258)"/>
    <use id="0406" xlink:href="#level3" transform="translate(2300,258)"/>
    <use id="0405" xlink:href="#level2" transform="translate(2400,258)"/>
    <use id="0404" xlink:href="#level2" transform="translate(2500,258)"/>
    <use id="0403" xlink:href="#level2" transform="translate(2600,258)"/>
    <use id="0402" xlink:href="#level2" transform="translate(2700,258)"/>
    <use id="0401" xlink:href="#level1" transform="translate(2800,258)"/>
  </g>
  <g id="row5">
    <use id="0529" xlink:href="#level3" transform="translate(50,344)"/>
    <use id="0528" xlink:href="#level2" transform="translate(150,344)"/>
    <use id="0527" xlink:href="#level3" transform="translate(250,344)"/>
    <use id="0526" xlink:href="#level3" transform="translate(350,344)"/>
    <use id="0525" xlink:href="#level3" transform="translate(450,344)"/>
    <use id="0524" xlink:href="#level3" transform="translate(550,344)"/>
    <use id="0523" xlink:href="#level3" transform="translate(650,344)"/>
    <use id="0522" xlink:href="#level4" transform="translate(750,344)"/>
    <use id="0521" xlink:href="#level4" transform="translate(850,344)"/>
    <use id="0520" xlink:href="#level4" transform="translate(950,344)"/>
    <use id="0519" xlink:href="#level4" transform="translate(1050,344)"/>
    <use id="0518" xlink:href="#level4" transform="translate(1150,344)"/>
    <use id="0517" xlink:href="#level5" transform="translate(1250,344)"/>
    <use id="0516" xlink:href="#level5" transform="translate(1350,344)"/>
    <use id="0515" xlink:href="#level5" transform="translate(1450,344)"/>
    <use id="0514" xlink:href="#level5" transform="translate(1550,344)"/>
    <use id="0513" xlink:href="#level5" transform="translate(1650,344)"/>
    <use id="0512" xlink:href="#level4" transform="translate(1750,344)"/>
    <use id="0511" xlink:href="#level4" transform="translate(1850,344)"/>
    <use id="0510" xlink:href="#level4" transform="translate(1950,344)"/>
    <use id="0509" xlink:href="#level3" transform="translate(2050,344)"/>
    <use id="0508" xlink:href="#level3" transform="translate(2150,344)"/>
    <use id="0507" xlink:href="#level3" transform="translate(2250,344)"/>
    <use id="0506" xlink:href="#level3" transform="translate(2350,344)"/>
    <use id="0505" xlink:href="#level2" transform="translate(2450,344)"/>
    <use id="0504" xlink:href="#level2" transform="translate(2550,344)"/>
    <use id="0503" xlink:href="#level2" transform="translate(2650,344)"/>
    <use id="0502" xlink:href="#level2" transform="translate(2750,344)"/>
    <use id="0501" xlink:href="#level2" transform="translate(2850,344)"/>
  </g>
  <g id="row6">
    <use id="0629" xlink:href="#level3" transform="translate(0,430)"/>
    <use id="0628" xlink:href="#level2" transform="translate(100,430)"/>
    <use id="0627" xlink:href="#level3" transform="translate(200,430)"/>
    <use id="0626" xlink:href="#level3" transform="translate(300,430)"/>
    <use id="0625" xlink:href="#level3" transform="translate(400,430)"/>
    <use id="0624" xlink:href="#level3" transform="translate(500,430)"/>
    <use id="0623" xlink:href="#level3" transform="translate(600,430)"/>
    <use id="0622" xlink:href="#level3" transform="translate(700,430)"/>
    <use id="0621" xlink:href="#level4" transform="translate(800,430)"/>
    <use id="0620" xlink:href="#level4" transform="translate(900,430)"/>
    <use id="0619" xlink:href="#level4" transform="translate(1000,430)"/>
    <use id="0618" xlink:href="#level4" transform="translate(1100,430)"/>
    <use id="0617" xlink:href="#level4" transform="translate(1200,430)"/>
    <use id="0616" xlink:href="#level4" transform="translate(1300,430)"/>
    <use id="0615" xlink:href="#level4" transform="translate(1400,430)"/>
    <use id="0614" xlink:href="#level4" transform="translate(1500,430)"/>
    <use id="0613" xlink:href="#level4" transform="translate(1600,430)"/>
    <use id="0612" xlink:href="#level4" transform="translate(1700,430)"/>
    <use id="0611" xlink:href="#level4" transform="translate(1800,430)"/>
    <use id="0610" xlink:href="#level4" transform="translate(1900,430)"/>
    <use id="0609" xlink:href="#level4" transform="translate(2000,430)"/>
    <use id="0608" xlink:href="#level3" transform="translate(2100,430)"/>
    <use id="0607" xlink:href="#level3" transform="translate(2200,430)"/>
    <use id="0606" xlink:href="#level3" transform="translate(2300,430)"/>
    <use id="0605" xlink:href="#level3" transform="translate(2400,430)"/>
    <use id="0604" xlink:href="#level2" transform="translate(2500,430)"/>
    <use id="0603" xlink:href="#level2" transform="translate(2600,430)"/>
    <use id="0602" xlink:href="#level2" transform="translate(2700,430)"/>
    <use id="0601" xlink:href="#level2" transform="translate(2800,430)"/>
  </g>
  <g id="row7" transform="translate(0,516)">
    <use id="0729" xlink:href="#level2" transform="translate(50)"/>
    <use id="0728" xlink:href="#level2" transform="translate(150)"/>
    <use id="0727" xlink:href="#level2" transform="translate(250)"/>
    <use id="0726" xlink:href="#level2" transform="translate(350)"/>
    <use id="0725" xlink:href="#level3" transform="translate(450)"/>
    <use id="0724" xlink:href="#level3" transform="translate(550)"/>
    <use id="0723" xlink:href="#level4" transform="translate(650)"/>
    <use id="0722" xlink:href="#level4" transform="translate(750)"/>
    <use id="0721" xlink:href="#level4" transform="translate(850)"/>
    <use id="0720" xlink:href="#level4" transform="translate(950)"/>
    <use id="0719" xlink:href="#level4" transform="translate(1050)"/>
    <use id="0718" xlink:href="#level4" transform="translate(1150)"/>
    <use id="0717" xlink:href="#level4" transform="translate(1250)"/>
    <use id="0716" xlink:href="#level4" transform="translate(1350)"/>
    <use id="0715" xlink:href="#level4" transform="translate(1450)"/>
    <use id="0714" xlink:href="#level4" transform="translate(1550)"/>
    <use id="0713" xlink:href="#level4" transform="translate(1650)"/>
    <use id="0712" xlink:href="#level4" transform="translate(1750)"/>
    <use id="0711" xlink:href="#level4" transform="translate(1850)"/>
    <use id="0710" xlink:href="#level4" transform="translate(1950)"/>
    <use id="0709" xlink:href="#level4" transform="translate(2050)"/>
    <use id="0708" xlink:href="#level3" transform="translate(2150)"/>
    <use id="0707" xlink:href="#level3" transform="translate(2250)"/>
    <use id="0706" xlink:href="#level3" transform="translate(2350)"/>
    <use id="0705" xlink:href="#level2" transform="translate(2450)"/>
    <use id="0704" xlink:href="#level3" transform="translate(2550)"/>
    <use id="0703" xlink:href="#level3" transform="translate(2650)"/>
    <use id="0702" xlink:href="#level3" transform="translate(2750)"/>
    <use id="0701" xlink:href="#level2" transform="translate(2850)"/>
  </g>
  <g id="row8" transform="translate(0,602)">
    <use id="0829" xlink:href="#level2"/>
    <use id="0828" xlink:href="#level2" transform="translate(100)"/>
    <use id="0827" xlink:href="#level2" transform="translate(200)"/>
    <use id="0826" xlink:href="#level3" transform="translate(300)"/>
    <use id="0825" xlink:href="#level3" transform="translate(400)"/>
    <use id="0824" xlink:href="#level3" transform="translate(500)"/>
    <use id="0823" xlink:href="#level4" transform="translate(600)"/>
    <use id="0822" xlink:href="#level4" transform="translate(700)"/>
    <use id="0821" xlink:href="#level4" transform="translate(800)"/>
    <use id="0820" xlink:href="#level4" transform="translate(900)"/>
    <use id="0819" xlink:href="#level4" transform="translate(1000)"/>
    <use id="0818" xlink:href="#level4" transform="translate(1100)"/>
    <use id="0817" xlink:href="#level4" transform="translate(1200)"/>
    <use id="0816" xlink:href="#level4" transform="translate(1300)"/>
    <use id="0815" xlink:href="#level4" transform="translate(1400)"/>
    <use id="0814" xlink:href="#level4" transform="translate(1500)"/>
    <use id="0813" xlink:href="#level4" transform="translate(1600)"/>
    <use id="0812" xlink:href="#level4" transform="translate(1700)"/>
    <use id="0811" xlink:href="#level4" transform="translate(1800)"/>
    <use id="0810" xlink:href="#level4" transform="translate(1900)"/>
    <use id="0809" xlink:href="#level4" transform="translate(2000)"/>
    <use id="0808" xlink:href="#level4" transform="translate(2100)"/>
    <use id="0807" xlink:href="#level3" transform="translate(2200)"/>
    <use id="0806" xlink:href="#level3" transform="translate(2300)"/>
    <use id="0805" xlink:href="#level3" transform="translate(2400)"/>
    <use id="0804" xlink:href="#level3" transform="translate(2500)"/>
    <use id="0803" xlink:href="#level3" transform="translate(2600)"/>
    <use id="0802" xlink:href="#level3" transform="translate(2700)"/>
    <use id="0801" xlink:href="#level2" transform="translate(2800)"/>
  </g>
</svg>