<svg xmlns="http://www.w3.org/2000/svg" xmlns:xlink="http://www.w3.org/1999/xlink" viewBox="0 0 3000 2500">
  <defs>
    <filter id="paper">
      <feTurbulence
        type="fractalNoise"
        baseFrequency="0.04"
        result="noise"
        numOctaves="5"
      />

      <feDiffuseLighting in="noise" surfaceScale="2" result="texture">
        <feDistantLight azimuth="45" elevation="75"/>
      </feDiffuseLighting>

      <feComposite
        in="SourceGraphic"
        in2="texture"
        operator="arithmetic"
        k1="1"
        k2="0"
        k3="0"
        k4="0"
      />
    </filter>

    <polygon
      id="level5"
      filter="url(#paper)"
      fill="rgb(200,125,80)"
      stroke="#444444"
      points="50.24,0.25 100.23,29.112 100.23,86.835 50.24,115.697 0.25,86.835 0.25,29.112 50.24,0.25"
    />

    <polygon
      id="level4"
      filter="url(#paper)"
      fill="rgb(215,200,90)"
      stroke="#444444"
      points="50.24,0.25 100.23,29.112 100.23,86.835 50.24,115.697 0.25,86.835 0.25,29.112 50.24,0.25"
    />

    <polygon
      id="level3"
      filter="url(#paper)"
      fill="rgb(150,180,100)"
      stroke="#444444"
      points="50.24,0.25 100.23,29.112 100.23,86.835 50.24,115.697 0.25,86.835 0.25,29.112 50.24,0.25"
    />

    <polygon
      id="level2"
      filter="url(#paper)"
      fill="rgb(120,200,150)"
      stroke="#444444"
      points="50.24,0.25 100.23,29.112 100.23,86.835 50.24,115.697 0.25,86.835 0.25,29.112 50.24,0.25"
    />

    <polygon
      id="level1"
      filter="url(#paper)"
      fill="rgb(200,230,150)"
      stroke="#444444"
      points="50.24,0.25 100.23,29.112 100.23,86.835 50.24,115.697 0.25,86.835 0.25,29.112 50.24,0.25"
    />
  </defs>

  <g id="row1">
    <use id="0129" xlink:href="#level4" transform="translate(50,0)"/>
    <use id="0128" xlink:href="#level4" transform="translate(150,0)"/>
    <use id="0127" xlink:href="#level4" transform="translate(250,0)"/>
    <use id="0126" xlink:href="#level4" transform="translate(350,0)"/>
    <use id="0125" xlink:href="#level4" transform="translate(450,0)"/>
    <use id="0124" xlink:href="#level4" transform="translate(550,0)"/>
    <use id="0123" xlink:href="#level4" transform="translate(650,0)"/>
    <use id="0122" xlink:href="#level4" transform="translate(750,0)"/>
    <use id="0121" xlink:href="#level4" transform="translate(850,0)"/>
    <use id="0120" xlink:href="#level4" transform="translate(950,0)"/>
    <use id="0119" xlink:href="#level4" transform="translate(1050,0)"/>
    <use id="0118" xlink:href="#level4" transform="translate(1150,0)"/>
    <use id="0117" xlink:href="#level4" transform="translate(1250,0)"/>
    <use id="0116" xlink:href="#level4" transform="translate(1350,0)"/>
    <use id="0115" xlink:href="#level4" transform="translate(1450,0)"/>
    <use id="0114" xlink:href="#level4" transform="translate(1550,0)"/>
    <use id="0113" xlink:href="#level4" transform="translate(1650,0)"/>
    <use id="0112" xlink:href="#level4" transform="translate(1750,0)"/>
    <use id="0111" xlink:href="#level3" transform="translate(1850,0)"/>
    <use id="0110" xlink:href="#level3" transform="translate(1950,0)"/>
    <use id="0109" xlink:href="#level3" transform="translate(2050,0)"/>
    <use id="0108" xlink:href="#level2" transform="translate(2150,0)"/>
    <use id="0107" xlink:href="#level2" transform="translate(2250,0)"/>
    <use id="0106" xlink:href="#level2" transform="translate(2350,0)"/>
    <use id="0105" xlink:href="#level2" transform="translate(2450,0)"/>
    <use id="0104" xlink:href="#level2" transform="translate(2550,0)"/>
    <use id="0103" xlink:href="#level2" transform="translate(2650,0)"/>
    <use id="0102" xlink:href="#level2" transform="translate(2750,0)"/>
    <use id="0101" xlink:href="#level1" transform="translate(2850,0)"/>
  </g>
  <g id="row2">
    <use id="0229" xlink:href="#level4" transform="translate(0,86)"/>
    <use id="0228" xlink:href="#level4" transform="translate(100,86)"/>
    <use id="0227" xlink:href="#level4" transform="translate(200,86)"/>
    <use id="0226" xlink:href="#level4" transform="translate(300,86)"/>
    <use id="0225" xlink:href="#level4" transform="translate(400,86)"/>
    <use id="0224" xlink:href="#level4" transform="translate(500,86)"/>
    <use id="0223" xlink:href="#level4" transform="translate(600,86)"/>
    <use id="0222" xlink:href="#level4" transform="translate(700,86)"/>
    <use id="0221" xlink:href="#level4" transform="translate(800,86)"/>
    <use id="0220" xlink:href="#level4" transform="translate(900,86)"/>
    <use id="0219" xlink:href="#level4" transform="translate(1000,86)"/>
    <use id="0218" xlink:href="#level4" transform="translate(1100,86)"/>
    <use id="0217" xlink:href="#level4" transform="translate(1200,86)"/>
    <use id="0216" xlink:href="#level4" transform="translate(1300,86)"/>
    <use id="0215" xlink:href="#level4" transform="translate(1400,86)"/>
    <use id="0214" xlink:href="#level4" transform="translate(1500,86)"/>
    <use id="0213" xlink:href="#level4" transform="translate(1600,86)"/>
    <use id="0212" xlink:href="#level4" transform="translate(1700,86)"/>
    <use id="0211" xlink:href="#level3" transform="translate(1800,86)"/>
    <use id="0210" xlink:href="#level3" transform="translate(1900,86)"/>
    <use id="0209" xlink:href="#level3" transform="translate(2000,86)"/>
    <use id="0208" xlink:href="#level3" transform="translate(2100,86)"/>
    <use id="0207" xlink:href="#level2" transform="translate(2200,86)"/>
    <use id="0206" xlink:href="#level2" transform="translate(2300,86)"/>
    <use id="0205" xlink:href="#level2" transform="translate(2400,86)"/>
    <use id="0204" xlink:href="#level2" transform="translate(2500,86)"/>
    <use id="0203" xlink:href="#level2" transform="translate(2600,86)"/>
    <use id="0202" xlink:href="#level2" transform="translate(2700,86)"/>
    <use id="0201" xlink:href="#level2" transform="translate(2800,86)"/>
  </g>
</svg>