<svg xmlns="http://www.w3.org/2000/svg" xmlns:xlink="http://www.w3.org/1999/xlink" width="300" height="650">
  <!-- I eyeballed this from https://irongatearmory.com/product/norman-shield-with-steel-cross/ -->
  <title>Norman Kite Shield</title>
  <desc>A simple SVG approximation of a Norman kite shield</desc>
  
  <defs>
    <path id="top" d="M 5,150 A 40,40 0 0 1 295,150"/>
    <path id="bottom" d="M 5,150 Q 40, 400 150,620 M 150,620 Q 260, 400 295,150 L 5,150"/>
    <clipPath id="shieldclip">
      <use xlink:href="#top"/>
      <use xlink:href="#bottom"/>
    </clipPath>
  </defs>
  
  <g id="shield" fill="rgb(100,45,35)" stroke="#BCC6CC" stroke-width="3">
    <use xlink:href="#top"/>
    <use xlink:href="#bottom"/>
  </g>

  <defs>
    <line
      id="vertical"
      x1="150" y1="0" x2="150" y2="620"
      stroke="#BCC6CC"
      stroke-width="45"
      stroke-linecap="round"
    />

    <line
      id="horizontal"
      x1="5" y1="170" x2="300" y2="170"
      stroke="#BCC6CC "
      stroke-width="45"
      stroke-linecap="round"
    />
  </defs>

  <use xlink:href="#vertical" clip-path="url(#shieldclip)"/>
  <use xlink:href="#horizontal" clip-path="url(#shieldclip)"/>

  <circle
    id="centerpiece"
    cx="150"
    cy="170"
    r="45"
    fill="#BCC6CC"
    stroke="black"
    stroke-width="3"
  />

  <circle
    id="morecenterpiece"
    cx="150"
    cy="170"
    r="29"
    fill="lightgrey"
    stroke="grey"
  />

  <defs id="bolts">
    <circle
      id="bolt"
      r="5"
      fill="darkgrey"
      stroke="black"
    />

    <circle
      id="smallbolt"
      r="3"
      fill="darkgrey"
      stroke="black"
    />
  </defs>

  <use x="150" y="30" xlink:href="#bolt" fill="black"/>
  <use x="150" y="65" xlink:href="#bolt" fill="black"/>
  <use x="150" y="100" xlink:href="#bolt" fill="black"/>

  <use x="27" y="170" xlink:href="#bolt" fill="black"/>
  <use x="57" y="170" xlink:href="#bolt" fill="black"/>
  <use x="87" y="170" xlink:href="#bolt" fill="black"/>

  <use x="213" y="170" xlink:href="#bolt" fill="black"/>
  <use x="243" y="170" xlink:href="#bolt" fill="black"/>
  <use x="273" y="170" xlink:href="#bolt" fill="black"/>

  <use x="150" y="250" xlink:href="#bolt" fill="black"/>
  <use x="150" y="325" xlink:href="#bolt" fill="black"/>
  <use x="150" y="400" xlink:href="#bolt" fill="black"/>
  <use x="150" y="475" xlink:href="#bolt" fill="black"/>
  <use x="150" y="550" xlink:href="#bolt" fill="black"/>


  <use x="114" y="170" xlink:href="#smallbolt" fill="black"/>
  <use x="122" y="145" xlink:href="#smallbolt" fill="black"/>
  <use x="150" y="133" xlink:href="#smallbolt" fill="black"/>
  <use x="178" y="145" xlink:href="#smallbolt" fill="black"/>
  <use x="186" y="170" xlink:href="#smallbolt" fill="black"/>
  <use x="178" y="193" xlink:href="#smallbolt" fill="black"/>
  <use x="150" y="207" xlink:href="#smallbolt" fill="black"/>
  <use x="122" y="193" xlink:href="#smallbolt" fill="black"/>
</svg>