<svg xmlns="http://www.w3.org/2000/svg" xmlns:xlink="http://www.w3.org/1999/xlink" width="300" height="650">
  <defs>
    <path id="top" d="M 5,150 A 40,40 0 0 1 295,150"/>
    <path id="bottom_left" d="M 5,150 Q 40, 400 150,620 L 150,150"/>
    <path id="bottom_right" d="M 295,150 Q 260, 400 150,620 L 150,150"/>

    <clipPath id="shieldclip">
      <use xlink:href="#top"/>
      <use xlink:href="#bottom_left"/>
      <use xlink:href="#bottom_right"/>
    </clipPath>
  </defs>
  
  <g id="shield" fill="rgb(100,45,35)" stroke="#BCC6CC" stroke-width="3">
    <use xlink:href="#top"/>
    <use xlink:href="#bottom_left"/>
    <use xlink:href="#bottom_right"/>
  </g>

  <defs>
    <line
      id="vertical"
      x1="150" y1="0" x2="150" y2="620"
      stroke="#BCC6CC"
      stroke-width="45"
      stroke-linecap="round"
    />

    <line
      id="horizontal"
      x1="5" y1="170" x2="300" y2="170"
      stroke="#BCC6CC "
      stroke-width="45"
      stroke-linecap="round"
    />
  </defs>

  <use xlink:href="#vertical" clip-path="url(#shieldclip)"/>
  <use xlink:href="#horizontal" clip-path="url(#shieldclip)"/>

  <circle
    id="centerpiece"
    cx="150"
    cy="170"
    r="45"
    fill="#BCC6CC"
    stroke="black"
    stroke-width="3"
  />

  <defs id="bolts">
    <circle
      id="bolt"
      r="5"
      fill="darkgrey"
      stroke="black"
    />
  </defs>

  <use x="150" y="30" xlink:href="#bolt" fill="black"/>
  <use x="150" y="65" xlink:href="#bolt" fill="black"/>
  <use x="150" y="100" xlink:href="#bolt" fill="black"/>

  <use x="30" y="170" xlink:href="#bolt" fill="black"/>
  <use x="60" y="170" xlink:href="#bolt" fill="black"/>
  <use x="90" y="170" xlink:href="#bolt" fill="black"/>

  <use x="210" y="170" xlink:href="#bolt" fill="black"/>
  <use x="240" y="170" xlink:href="#bolt" fill="black"/>
  <use x="270" y="170" xlink:href="#bolt" fill="black"/>

  <use x="150" y="250" xlink:href="#bolt" fill="black"/>
  <use x="150" y="325" xlink:href="#bolt" fill="black"/>
  <use x="150" y="400" xlink:href="#bolt" fill="black"/>
  <use x="150" y="475" xlink:href="#bolt" fill="black"/>
  <use x="150" y="550" xlink:href="#bolt" fill="black"/>
</svg>