<svg xmlns="http://www.w3.org/2000/svg" width="100" height="100">
  <rect width="100" height="100" fill="rgb(180,100,40)" stroke="black" stroke-width="3"/>

  <g id="battleaxe" transform="translate(0,100) rotate(160, 46, -13) scale(0.01,-0.01) matrix(1,0,0,-1,0,100)" fill="black" stroke="none" >
    <path d="M481 4529 l-24 -10 26 -27 c43 -45 86 -147 107 -254 25 -127 27 -294
  3 -364 -15 -46 -50 -102 -65 -103 -3 -1 -38 17 -77 39 -39 22 -79 40 -90 40
  -27 0 -57 -42 -75 -103 -23 -80 -14 -103 46 -123 28 -9 67 -31 87 -48 50 -44
  139 -89 181 -91 19 -2 49 -8 65 -15 17 -7 73 -27 125 -45 52 -18 138 -53 190
  -77 200 -96 272 -128 284 -128 7 0 30 -12 51 -26 21 -14 81 -40 134 -58 53
  -18 132 -52 177 -74 44 -23 83 -42 87 -42 3 0 43 -17 89 -39 87 -40 231 -99
  321 -130 28 -10 99 -40 157 -66 58 -25 141 -63 185 -82 44 -19 109 -51 145
  -70 36 -19 103 -52 150 -75 47 -22 159 -76 250 -120 91 -44 186 -88 211 -98
  25 -10 190 -90 365 -178 175 -87 335 -165 354 -172 19 -7 40 -17 45 -21 6 -4
  147 -77 315 -162 168 -85 325 -166 350 -181 25 -14 61 -34 80 -44 19 -10 55
  -31 80 -47 25 -16 115 -65 200 -108 243 -123 423 -218 450 -237 31 -21 153
  -70 175 -70 9 0 30 8 46 17 35 21 52 71 47 140 l-3 47 -225 103 c-124 57 -271
  126 -327 153 -56 28 -105 50 -110 50 -5 0 -24 11 -43 24 -19 13 -46 27 -60 31
  -45 13 -356 166 -650 319 -327 170 -751 376 -774 376 -8 0 -17 4 -20 8 -3 5
  -38 21 -78 37 -40 16 -162 73 -271 127 -109 54 -200 98 -203 98 -4 0 -198 91
  -454 213 -148 70 -270 122 -740 317 -132 55 -627 275 -775 345 -55 26 -133 62
  -172 81 -40 19 -73 39 -73 44 0 11 152 106 251 156 83 42 268 94 335 94 44 0
  44 0 44 35 0 43 -37 119 -81 166 -17 19 -58 66 -90 106 -33 39 -84 94 -115
  121 -101 90 -326 183 -489 202 -94 12 -93 12 -124 -1z m270 -54 c137 -40 203
  -71 194 -93 -4 -12 -2 -12 8 -3 11 9 17 8 26 -3 9 -11 9 -16 0 -22 -8 -4 -9
  -3 -5 4 4 7 5 12 2 12 -3 0 -7 -4 -10 -9 -3 -5 13 -21 36 -34 24 -14 73 -55
  111 -91 37 -35 63 -56 57 -46 -5 10 -45 49 -89 86 -88 76 -105 102 -37 55 59
  -41 207 -200 204 -220 -2 -8 3 -16 11 -16 8 0 18 -14 23 -32 5 -18 13 -35 19
  -39 8 -4 7 0 0 15 -7 11 -9 21 -7 21 8 0 53 -83 60 -110 4 -14 -3 -6 -15 18
  -26 51 -36 50 -14 -1 10 -24 11 -38 4 -42 -14 -9 -36 11 -43 40 -4 14 -11 25
  -16 25 -6 0 -10 9 -10 19 0 11 -6 26 -13 33 -8 7 -19 23 -26 36 -6 12 -17 22
  -24 22 -7 0 -21 12 -32 27 -24 32 -90 94 -113 107 -10 5 -21 15 -25 23 -4 7
  -14 13 -21 13 -7 0 -23 11 -36 25 -13 14 -29 25 -36 25 -6 0 -22 11 -35 25
  -13 13 -28 25 -32 25 -4 0 -36 13 -70 29 -34 16 -78 32 -97 35 -19 4 -57 13
  -85 21 -27 8 -63 17 -80 21 l-30 7 30 8 c17 5 36 7 43 4 6 -2 12 0 12 5 0 17
  34 11 161 -25z m-164 -42 c-7 -12 27 -68 43 -71 10 -2 11 0 2 10 -12 15 -12
  58 0 58 4 0 8 -11 8 -25 0 -19 4 -23 17 -18 11 5 14 3 8 -6 -6 -11 -3 -11 16
  -1 13 7 27 19 32 26 11 19 37 6 38 -20 0 -11 3 -15 6 -8 2 6 12 12 20 12 10 0
  13 -6 9 -16 -4 -10 0 -15 12 -13 39 4 45 0 31 -18 -11 -15 -11 -16 1 -5 22 19
  40 14 40 -10 0 -13 3 -18 8 -12 10 15 113 -52 119 -77 4 -13 11 -18 22 -14 21
  6 131 -99 131 -125 0 -13 7 -20 18 -20 29 0 59 -40 74 -95 7 -27 17 -53 22
  -57 11 -7 -34 -28 -60 -28 -8 0 -61 -16 -118 -35 -112 -38 -246 -107 -313
  -162 -32 -26 -43 -30 -43 -18 0 9 -4 13 -10 10 -5 -3 -10 -2 -10 3 0 6 7 12
  15 16 18 6 20 32 3 42 -6 4 -8 3 -5 -3 4 -6 0 -14 -9 -17 -13 -5 -15 -1 -9 21
  5 23 4 26 -6 16 -7 -7 -17 -13 -22 -13 -5 0 -1 8 8 17 16 16 16 17 -6 25 -15
  6 -25 5 -27 -1 -4 -13 -23 -15 -20 -2 2 5 -1 11 -7 13 -5 1 -11 -7 -13 -19 -2
  -13 -10 -23 -18 -23 -18 0 -19 -2 13 66 26 55 28 67 27 184 -2 139 -14 220
  -50 328 -13 40 -22 78 -19 83 7 11 28 12 22 2z m110 -29 c-3 -3 -12 -4 -19 -1
  -8 3 -5 6 6 6 11 1 17 -2 13 -5z m-246 -623 c68 -37 71 -40 46 -46 -15 -4 -38
  -4 -52 -1 -36 9 -41 -13 -13 -59 20 -35 20 -38 4 -32 -10 4 -26 2 -35 -5 -14
  -11 -14 -11 -3 3 10 14 10 18 -3 23 -11 4 -14 2 -9 -6 5 -8 2 -9 -12 -4 -18 8
  -41 14 -56 15 -5 1 -8 8 -8 17 0 10 5 14 15 10 8 -3 22 -9 32 -13 11 -4 14 -3
  9 6 -5 7 -20 17 -34 23 -22 9 -24 12 -9 15 19 5 23 19 5 25 -22 8 3 27 30 22
  24 -4 25 -3 10 10 -22 16 -23 36 -4 36 8 0 47 -18 87 -39z m169 -82 c14 -7 27
  -14 30 -14 53 -13 80 -39 80 -77 0 -7 9 -21 20 -33 l21 -22 -32 -1 c-17 0 -57
  9 -88 21 -31 12 -60 20 -64 19 -5 -1 -16 6 -25 16 -9 10 -13 12 -8 5 10 -16 1
  -17 -26 -2 -15 8 -22 8 -28 0 -4 -7 -7 5 -8 25 -1 31 1 36 18 31 26 -7 25 -1
  -1 14 -14 7 -24 8 -28 1 -3 -5 -14 1 -25 15 l-19 25 30 -6 c18 -4 40 -1 58 8
  25 13 33 13 50 2 11 -7 31 -19 45 -27z m640 -319 c74 -32 180 -79 235 -105 93
  -45 157 -72 342 -146 40 -15 89 -37 110 -48 21 -10 83 -36 138 -56 55 -20 159
  -66 230 -100 72 -35 157 -74 190 -88 33 -14 108 -48 167 -76 59 -28 110 -51
  112 -51 9 0 306 -141 560 -266 94 -46 177 -84 186 -84 9 0 20 -4 26 -9 5 -4
  45 -23 89 -41 102 -41 525 -248 546 -266 17 -15 620 -317 709 -355 30 -13 107
  -51 170 -84 63 -33 140 -72 170 -86 54 -26 301 -144 390 -188 25 -12 34 -19
  20 -16 -14 3 -38 8 -54 10 -27 4 -28 3 -10 -10 10 -8 24 -15 31 -15 6 0 14 -4
  17 -8 10 -17 -92 -7 -112 11 -10 9 -22 17 -26 17 -5 0 2 -8 15 -19 l23 -18
  -31 1 c-25 1 -31 5 -30 20 1 10 -5 21 -13 23 -13 4 -13 3 -1 -5 12 -8 12 -14
  3 -25 -7 -7 -8 -18 -4 -22 4 -5 0 -4 -8 1 -8 5 -22 7 -31 6 -9 -2 -21 4 -28
  12 -10 12 -9 14 6 11 10 -2 18 -4 18 -5 0 -1 8 -3 18 -5 9 -2 15 1 11 6 -3 5
  -9 7 -14 4 -5 -3 -11 -1 -15 5 -4 6 -10 8 -15 5 -5 -3 -11 -1 -15 5 -4 6 -10
  8 -15 5 -4 -3 -21 9 -37 26 -31 34 -141 91 -157 82 -6 -3 -8 -3 -4 2 9 9 -70
  65 -92 65 -9 0 -25 7 -38 15 -17 13 -21 13 -16 2 3 -8 25 -24 49 -36 25 -12
  45 -27 45 -32 0 -6 -4 -7 -10 -4 -6 3 -10 0 -11 -7 0 -10 -2 -10 -6 0 -2 6 -9
  10 -14 6 -5 -3 -9 1 -9 8 0 8 -16 20 -35 27 -19 7 -35 16 -35 20 0 3 -9 8 -20
  9 -44 4 -49 6 -43 15 4 6 0 8 -9 4 -9 -3 -15 0 -14 6 0 7 -3 12 -9 12 -5 0 -9
  -3 -8 -7 7 -21 -9 -4 -17 18 -8 20 -13 24 -23 15 -10 -8 -19 -6 -35 5 -22 15
  -32 41 -10 28 6 -4 8 -3 4 4 -3 6 -15 9 -26 7 -10 -2 -42 7 -70 21 -48 23 -68
  40 -32 27 12 -4 14 -3 6 6 -15 16 -52 22 -60 9 -4 -6 -9 -6 -13 -1 -3 5 -17
  17 -31 26 -17 12 -20 17 -8 17 8 0 21 -7 28 -15 7 -8 17 -15 22 -15 6 0 5 7
  -3 16 -8 10 8 6 44 -12 53 -26 80 -52 40 -37 -10 3 -15 3 -11 -2 4 -4 20 -9
  35 -10 49 -3 113 -25 136 -48 11 -11 28 -22 37 -23 8 -1 24 -5 35 -9 48 -19
  -7 17 -110 71 -60 31 -119 63 -130 71 -11 7 -27 13 -35 13 -9 0 -34 9 -56 19
  -21 11 -41 15 -42 10 -2 -5 -17 0 -33 12 -17 12 -32 19 -35 17 -2 -3 7 -11 21
  -18 14 -7 25 -17 25 -21 0 -4 -45 15 -100 42 -55 27 -106 47 -112 43 -6 -4 -8
  -3 -5 2 3 6 -14 20 -39 33 -41 22 -53 46 -16 35 14 -5 15 -4 2 5 -9 6 -18 7
  -24 1 -16 -16 -33 -12 -90 25 -30 19 -58 35 -62 35 -4 0 -36 15 -73 34 -36 18
  -73 31 -81 29 -13 -4 -13 -3 0 6 13 10 12 13 -6 10 -3 0 -16 7 -30 16 -14 9
  -32 14 -39 11 -9 -3 -12 0 -8 10 3 8 2 14 -3 13 -19 -5 -64 14 -64 26 0 16
  -25 26 -47 19 -13 -4 -15 -3 -5 4 13 9 -40 39 -160 91 -27 11 -48 25 -48 30 0
  6 2 11 4 11 1 0 64 -31 140 -68 75 -37 136 -65 136 -61 0 11 -270 140 -280
  134 -6 -3 -10 -2 -10 3 0 10 -70 45 -77 38 -2 -2 5 -7 16 -11 12 -3 21 -11 21
  -17 0 -6 3 -9 6 -5 4 3 13 -1 21 -9 21 -21 7 -31 -15 -11 -10 10 -24 17 -30
  17 -7 0 -12 5 -12 10 0 6 -7 10 -16 10 -10 0 -14 5 -10 15 4 13 2 14 -14 5
  -14 -8 -20 -8 -20 0 0 6 -4 9 -10 5 -5 -3 -31 10 -57 29 -66 47 -118 67 -133
  53 -8 -9 -9 -7 -4 7 6 15 4 18 -9 13 -8 -3 -21 1 -28 9 -7 9 -21 13 -31 11
  -10 -3 -16 -2 -14 2 3 4 -20 19 -51 34 -46 22 -54 24 -49 9 3 -11 0 -9 -10 6
  -9 12 -20 22 -24 22 -4 0 -40 18 -80 40 -40 22 -79 40 -86 40 -8 0 -14 5 -14
  10 0 6 -7 10 -16 10 -9 0 -32 9 -50 21 -19 11 -45 22 -58 23 -13 2 -37 13 -54
  24 -16 12 -37 22 -46 22 -9 0 -24 5 -34 10 -9 6 -38 19 -64 30 -27 10 -48 24
  -48 31 0 17 -49 52 -78 55 -14 2 -39 13 -55 25 -34 25 -84 35 -66 13 6 -8 15
  -11 20 -8 5 3 23 -6 40 -20 17 -14 43 -26 58 -26 15 0 35 -8 44 -18 15 -16 15
  -18 -3 -18 -11 0 -20 4 -20 8 0 4 -7 4 -17 1 -12 -5 -14 -3 -8 7 5 9 4 11 -4
  6 -6 -4 -37 8 -69 27 -90 55 -259 130 -272 122 -4 -2 -6 6 -5 20 2 17 -1 22
  -12 18 -12 -5 -12 -7 -1 -14 15 -10 7 -12 -16 -3 -9 3 -14 9 -12 13 2 3 -19 7
  -47 7 -49 1 -137 31 -137 45 0 9 21 6 38 -5 7 -4 16 -5 19 -2 3 3 -12 13 -33
  23 -22 10 -41 21 -42 26 -2 4 -8 5 -13 1 -5 -3 -9 0 -9 6 0 6 -4 8 -10 5 -5
  -3 -10 -1 -10 6 0 7 -3 10 -6 6 -3 -3 -27 4 -52 15 -69 30 -102 38 -99 26 1
  -6 -4 -13 -10 -15 -7 -3 -13 3 -13 12 0 9 -4 14 -8 11 -5 -3 -21 1 -36 9 -15
  8 -30 14 -34 13 -4 0 -22 5 -39 13 -33 14 -44 29 -20 29 6 1 -3 9 -21 18 -18
  10 -29 21 -25 25 4 5 -1 5 -11 1 -16 -6 -14 -9 14 -24 18 -9 29 -20 23 -23
  -10 -7 -93 33 -93 45 0 4 8 5 18 1 14 -5 15 -3 5 7 -10 11 -15 11 -27 1 -13
  -11 -22 -9 -51 9 -20 12 -41 20 -48 17 -7 -3 -24 4 -38 14 -13 10 -33 19 -44
  19 -19 1 -19 1 -2 14 16 13 16 15 -13 24 -38 14 -39 24 -2 17 l27 -5 -25 11
  c-40 17 -68 20 -76 7 -5 -8 -2 -9 10 -5 10 4 15 3 11 -3 -8 -13 -45 -13 -45
  -1 0 6 5 13 10 16 7 4 3 14 -11 26 -12 10 -25 16 -30 14 -4 -3 -37 8 -72 25
  -82 39 -110 39 -34 0 31 -17 63 -30 71 -30 7 0 19 -6 26 -14 6 -8 19 -12 28
  -9 12 4 14 3 7 -5 -16 -17 -162 37 -209 77 -16 13 -18 13 -11 1 6 -12 5 -12
  -5 -3 -13 12 -4 37 11 28 5 -4 9 -1 9 5 0 8 9 10 25 6 34 -9 31 4 -10 44 -19
  19 -35 37 -35 41 0 4 84 -33 188 -83 103 -50 248 -116 322 -148z m-770 205
  l23 -24 -23 4 c-29 6 -44 20 -36 34 9 15 9 15 36 -14z m85 -50 c39 -32 28 -32
  -15 0 -19 14 -30 25 -24 25 5 0 23 -11 39 -25z m473 -180 c-3 -3 -9 2 -12 12
  -6 14 -5 15 5 6 7 -7 10 -15 7 -18z m547 -235 c3 -6 -1 -7 -9 -4 -18 7 -21 14
  -7 14 6 0 13 -4 16 -10z m145 -60 c8 -5 11 -10 5 -10 -5 0 -17 5 -25 10 -8 5
  -10 10 -5 10 6 0 17 -5 25 -10z m1205 -540 c3 -6 -1 -7 -9 -4 -18 7 -21 14 -7
  14 6 0 13 -4 16 -10z m763 -366 c16 -8 21 -14 11 -14 -9 0 -27 9 -40 21 -13
  11 -18 18 -11 14 6 -3 24 -13 40 -21z m1437 -741 c6 -1 18 -4 27 -6 10 -2 20
  -6 23 -10 3 -4 2 -5 -2 -2 -3 3 -13 -1 -21 -8 -13 -10 -14 -9 -7 2 6 11 4 13
  -7 8 -10 -3 -24 3 -35 15 -11 14 -13 18 -3 13 8 -5 20 -11 25 -12z m177 -81
  c7 -9 -9 -3 -37 13 -70 40 -91 62 -28 29 29 -15 58 -34 65 -42z m367 -124
  c-13 -42 -20 -46 -39 -23 -10 12 -10 19 -2 27 7 7 12 22 12 35 0 12 8 26 18
  32 23 13 28 -19 11 -71z m-111 59 c6 0 12 -4 12 -8 0 -4 9 -11 21 -14 11 -4
  18 -9 16 -12 -3 -2 -18 2 -35 11 -16 8 -32 13 -34 10 -3 -2 -11 3 -19 13 -13
  15 -12 16 6 9 11 -5 26 -9 33 -9z m-48 -27 c8 -5 11 -10 5 -10 -5 0 -17 5 -25
  10 -8 5 -10 10 -5 10 6 0 17 -5 25 -10z m-20 -30 c0 -15 -5 -12 -26 11 -19 22
  -19 22 4 10 12 -6 22 -16 22 -21z m100 -35 c0 -10 -41 10 -57 27 -17 19 -15
  19 20 -2 20 -12 37 -23 37 -25z"/>
    <path d="M618 4473 c7 -3 16 -2 19 1 4 3 -2 6 -13 5 -11 0 -14 -3 -6 -6z"/>
    <path d="M668 4470 c22 -9 41 -14 107 -24 22 -4 19 -2 -10 8 -52 17 -130 30
  -97 16z"/>
    <path d="M820 4430 c8 -5 20 -10 25 -10 6 0 3 5 -5 10 -8 5 -19 10 -25 10 -5
  0 -3 -5 5 -10z"/>
    <path d="M700 4366 c0 -2 7 -6 15 -10 8 -3 15 -1 15 4 0 6 -7 10 -15 10 -8 0
  -15 -2 -15 -4z"/>
    <path d="M660 4173 c0 -28 16 -48 25 -33 4 7 2 16 -5 20 -7 4 -9 13 -6 19 4 6
  2 11 -3 11 -6 0 -11 -8 -11 -17z"/>
    <path d="M668 4096 c-17 -23 -17 -24 2 -19 16 4 19 2 14 -13 -4 -14 -3 -16 4
  -5 13 18 32 5 32 -22 0 -23 -20 -62 -20 -39 0 6 -5 12 -11 12 -6 0 -9 -6 -7
  -12 3 -7 -1 -19 -9 -26 -7 -7 -13 -21 -12 -30 0 -14 2 -13 9 3 5 11 9 14 9 8
  1 -7 7 -13 15 -13 9 0 12 7 9 18 -2 10 3 24 11 31 18 15 22 96 6 106 -6 4 -7
  -1 -3 -11 5 -14 3 -15 -15 -5 -13 7 -19 17 -16 26 9 22 2 18 -18 -9z"/>
    <path d="M695 4040 c-3 -5 -1 -10 4 -10 6 0 11 5 11 10 0 6 -2 10 -4 10 -3 0
  -8 -4 -11 -10z"/>
    <path d="M855 4020 c3 -5 11 -10 16 -10 6 0 7 5 4 10 -3 6 -11 10 -16 10 -6 0
  -7 -4 -4 -10z"/>
    <path d="M844 3989 c-3 -6 1 -18 11 -27 16 -16 17 -16 6 5 -8 16 -8 23 2 26 9
  4 9 6 0 6 -6 1 -15 -4 -19 -10z"/>
    <path d="M807 3949 c-3 -13 -1 -19 6 -16 7 2 18 -3 25 -12 10 -14 11 -13 5 4
  -4 11 -12 25 -19 32 -9 10 -13 8 -17 -8z"/>
    <path d="M1090 3949 c0 -4 -16 -6 -35 -4 -19 2 -32 -1 -29 -6 3 -5 -4 -9 -14
  -9 -26 0 -36 -27 -12 -33 12 -3 17 0 14 8 -6 16 33 27 41 11 3 -8 7 -7 11 2 5
  10 9 10 20 1 12 -10 13 -9 8 5 -4 9 -3 16 2 15 21 -3 47 2 40 8 -9 10 -46 11
  -46 2z"/>
    <path d="M767 3907 c6 -28 -15 -46 -28 -26 -5 8 -9 9 -9 3 0 -23 24 -31 50
  -18 14 8 19 14 10 14 -10 0 -11 3 -4 8 8 5 6 13 -6 25 -17 17 -17 17 -13 -6z"/>
    <path d="M654 3893 c1 -16 -5 -35 -12 -45 -9 -11 -10 -18 -3 -23 6 -3 11 -1
  11 4 0 6 6 11 13 11 7 0 13 9 13 20 0 11 -4 20 -9 20 -5 0 -5 9 -2 20 3 11 2
  20 -3 20 -5 0 -8 -12 -8 -27z"/>
    <path d="M700 3908 c0 -7 -3 -24 -7 -37 -4 -17 -3 -22 5 -17 7 4 12 16 12 27
  0 10 5 19 11 19 5 0 7 5 4 10 -9 14 -25 12 -25 -2z"/>
    <path d="M875 3890 c-3 -5 -1 -10 4 -10 6 0 11 5 11 10 0 6 -2 10 -4 10 -3 0
  -8 -4 -11 -10z"/>
    <path d="M845 3860 c3 -5 10 -10 16 -10 5 0 9 5 9 10 0 6 -7 10 -16 10 -8 0
  -12 -4 -9 -10z"/>
    <path d="M802 3829 c-18 -3 -34 -8 -35 -10 -1 -2 -11 -15 -22 -28 l-20 -25 29
  22 c18 14 36 20 51 16 15 -4 24 0 29 12 8 22 7 22 -32 13z"/>
    <path d="M670 3820 c0 -5 5 -10 10 -10 6 0 10 5 10 10 0 6 -4 10 -10 10 -5 0
  -10 -4 -10 -10z"/>
    <path d="M762 3774 c-7 -8 -8 -14 -3 -14 10 0 25 19 20 25 -2 1 -10 -3 -17
  -11z"/>
    <path d="M567 3639 c7 -7 15 -10 18 -7 3 3 -2 9 -12 12 -14 6 -15 5 -6 -5z"/>
    <path d="M1137 3343 c-2 -5 4 -17 14 -27 12 -12 19 -15 19 -7 0 16 -27 44 -33
  34z"/>
    <path d="M1205 3310 c10 -11 24 -20 32 -20 7 0 13 -4 13 -10 0 -5 5 -10 10
  -10 6 0 6 7 -2 19 -6 10 -18 17 -25 14 -7 -3 -13 -1 -13 5 0 5 -8 13 -17 16
  -15 6 -15 4 2 -14z"/>
    <path d="M1416 3225 c15 -14 32 -24 38 -22 6 2 18 -6 28 -17 17 -20 25 -12 10
  10 -6 10 -88 54 -99 54 -2 0 8 -11 23 -25z"/>
    <path d="M1869 3020 c18 -11 35 -19 37 -17 7 7 -19 24 -46 32 -20 5 -19 3 9
  -15z"/>
    <path d="M2077 2959 c7 -7 15 -10 18 -7 3 3 -2 9 -12 12 -14 6 -15 5 -6 -5z"/>
    <path d="M3311 2387 c28 -21 59 -36 59 -29 0 5 -11 14 -25 20 -24 11 -44 16
  -34 9z"/>
    <path d="M3842 2127 c10 -8 15 -17 11 -21 -4 -4 1 -4 10 0 20 7 20 7 -13 23
  -22 11 -23 10 -8 -2z"/>
    <path d="M4420 1816 c0 -3 9 -10 20 -16 11 -6 20 -8 20 -6 0 3 -9 10 -20 16
  -11 6 -20 8 -20 6z"/>
    <path d="M4970 1556 c0 -3 9 -10 20 -16 11 -6 20 -8 20 -6 0 3 -9 10 -20 16
  -11 6 -20 8 -20 6z"/>
    <path d="M5287 1439 c7 -7 15 -10 18 -7 3 3 -2 9 -12 12 -14 6 -15 5 -6 -5z"/>
    <path d="M5447 1359 c7 -7 15 -10 18 -7 3 3 -2 9 -12 12 -14 6 -15 5 -6 -5z"/>
    <path d="M5516 1325 c10 -8 26 -14 34 -14 9 0 4 6 -10 14 -33 19 -49 19 -24 0z"/>
  </g>

  <g id="attributes" text-anchor="middle" dominant-baseline="central" font-size="30">
    <g id="normal_attack">
      <text x="15" y="20">7</text>
    </g>
    <g id="normal_defense">
      <text x="85" y="20">5</text>
    </g>
    <g id="shield_wall_defense">
      <text x="85" y="80">8</text>
    </g>
    <g id="shield_wall_attack">
      <text x="15" y="80">3</text>
    </g>
    <g id="morale_rating">
      <text x="50" y="80" font-size="22">A</text>
  </g>
</svg>