<svg xmlns="http://www.w3.org/2000/svg" xmlns:xlink="http://www.w3.org/1999/xlink" width="100" height="100">
  <title>Norman Cavalry</title>
  <desc>Norman Cavalry unit for S\&amp;T Hastings 1066</desc>

  <rect width="100" height="100" fill="red" stroke="black" stroke-width="3"/>

  <g id="horse" transform="translate(10,5) scale(0.1,0.1)">
    <path id="horse_path" d="M533.7,86.3c4,1.2,5.2,18.7-2.1,33.3
	    c-4.1,8.2-9.9,13.7-14.9,17.3c-2.5,1.8-5.5,8.7-4.4,11.7c0.7,2.2,1.7,4.6,2.9,7.1c6.3,13.4,14,13.6,17.8,23.1
	    c6.5,15.9-6.4,27.1,52,86.7c0,0,12.9,15.5-3,37.8c0,0-3.9,22.8-20.6,12c0,0-13.7,11.2-39.5-10.7c0,0-7.9-29-57.5-31.3
	    c0,0-30.5,4.3-40.8-21.9c-9.6,1.3-17.1,3.9-22.7,6.4c-27.8,12.5-32.8,34.5-71.3,84.7c-13.4,17.5-15.3,18-20.1,26.9
	    c-13.5,25.2-14.8,50.6-13.8,67.5c0,0-9,90-49.1,109.8C224.7,557.5,32.9,297.9,67.9,266c8.6-5.9,21.8-14.1,39-21.5
	    c26.5-11.3,42.8-13.2,58.9-16.3c49.2-12.5,69.8-39.3,90.7-56.7c32.1-26.6,151.1-73,199.6-56.7c0,0,21.7-14.4,24.3-18.7
	    c2.6-4.3,17.4-23.9,29.5-18.7c0.3,0.8-1.9,14.5-7.8,24.9c-3.6,6.4-5.1,13.2-5.1,13.2c1.4-0.3,3.4-0.8,5.8-1.7
	    C523.5,106.3,529,84.9,533.7,86.3z"
    />
  </g>

  <g id="crown" transform="translate(70,5) scale(0.05,0.05)">
    <path d="M436.475,103.262c-19.961,0-36.141,16.18-36.141,36.141c0,9.776,3.92,18.613,10.226,25.12l-74.195,71.928l-76.969-122.068
			c12.207-7.695,20.378-21.202,20.378-36.7c0-24.005-19.46-43.467-43.466-43.467c-24.005,0-43.465,19.462-43.465,43.467
			c0,15.468,8.139,28.961,20.31,36.666l-76.938,122.101L62.05,164.528c6.311-6.505,10.232-15.346,10.232-25.125
			c0-19.961-16.181-36.141-36.141-36.141S0,119.442,0,139.403c0,19.959,16.181,36.139,36.141,36.139
			c2.196,0,4.322-0.272,6.411-0.647l34.27,166.474h318.972l34.27-166.474c2.088,0.378,4.215,0.647,6.412,0.647
			c19.96,0,36.14-16.18,36.14-36.139C472.615,119.442,456.435,103.262,436.475,103.262z"/>
  </g>

  <g id="attributes" text-anchor="middle" font-size="30">
    <g id="shield_wall_defense">
      <text x="85" y="90">6</text>
    </g>
    <g id="shield_wall_attack">
      <text x="15" y="90">8</text>
    </g>
    <g id="morale_rating">
      <text x="50" y="90" font-size="22">A</text>
    </g>
  </g>
</svg>