<svg xmlns="http://www.w3.org/2000/svg" xmlns:xlink="http://www.w3.org/1999/xlink" width="200" height="100">
  <title>William</title>
  <desc>William leader unit for S\&amp;T Hastings 1066</desc>

  <defs>
    <marker fill="black" id="arrowhead" markerWidth="10" markerHeight="7" refX="0" refY="3.5" orient="auto">
      <polygon points="0 0, 8 3.5, 0 7" />
    </marker>
  </defs>

  <rect
    id="background"
    height="200"
    width="200"
    fill="white"
  />

  <g id="leader" transform="translate(70,20)">
    <rect width="60" height="60" fill="red" stroke="black" stroke-width="1.5%"/>

    <g id="scale" transform="scale(0.6)">
      <g id="crown" transform="translate(28,24) scale(0.08,0.08)" fill="white">
        <path class="st0" d="M474.25,193.656c-20.859,0-37.766,16.906-37.766,37.75c0,14.078,7.797,26.203,19.203,32.703
          c-5.594,19.203-16.5,39.156-34.031,49.141c-35.063,19.906-66.703-11.859-48.219-97.75c18.078-2.813,31.969-18.313,31.969-37.188
          c0-20.844-16.906-37.75-37.766-37.75s-37.75,16.906-37.75,37.75c0,13.469,7.109,25.219,17.703,31.891
          c-10.063,49.516-25.453,69.281-44.406,66.688c-28.328-3.859-32.656-42.203-32.797-113.219
          c13.703-5.672,23.359-19.141,23.359-34.875c0-20.859-16.906-37.766-37.75-37.766s-37.75,16.906-37.75,37.766
          c0,15.75,9.656,29.219,23.375,34.875c-0.156,71.016-4.5,109.359-32.813,113.219c-18.969,2.594-34.359-17.172-44.406-66.688
          c10.594-6.688,17.703-18.422,17.703-31.891c0-20.844-16.906-37.75-37.766-37.75c-20.844,0-37.75,16.906-37.75,37.75
          c0,18.875,13.891,34.391,31.969,37.188c18.484,85.891-13.156,117.656-48.219,97.75c-17.531-9.984-28.438-29.938-34.031-49.156
          c11.406-6.484,19.188-18.609,19.188-32.688c0-20.844-16.906-37.75-37.75-37.75S0,210.563,0,231.406
          C0,250.438,14.125,266,32.406,268.625l26.281,152.344H256h197.313l26.281-152.344C497.875,266,512,250.438,512,231.406
          C512,210.563,495.094,193.656,474.25,193.656z"
        />
      </g>

      <g id="attributes" text-anchor="middle" font-size="30" fill="white">
        <text x="50" y="23" font-size="18">William</text>
        <g id="command_range">
          <text x="15" y="90">7</text>
        </g>
        <g id="rally_rating">
          <text x="85" y="90">2</text>
        </g>
      </g>
    </g>
  </g>

  <line
    x1="48"
    y1="28"
    x2="84"
    y2="47"
    stroke="black"
    stroke-width="1"
  />

  <text x="10" y="24" font-size="12">
    <tspan>Symbol</tspan>
  </text>

  <line
    x1="48"
    y1="88"
    x2="74"
    y2="72"
    stroke="black"
    stroke-width="1"
  />

  <text x="2" y="80" font-size="12">
    <tspan>Command</tspan>
    <tspan x="8" dy="12">Range</tspan>
  </text>

  <line
    x1="145"
    y1="82"
    x2="125"
    y2="70"
    stroke="black"
    stroke-width="1"
  />

  <text x="150" y="80" font-size="12">
    <tspan>Rally</tspan>
    <tspan x="148" dy="12">Rating</tspan>
  </text>

  <line
    x1="145"
    y1="22"
    x2="125"
    y2="30"
    stroke="black"
    stroke-width="1"
  />

  <text x="148" y="25" font-size="12">
    <tspan>Name</tspan>
  </text>
</svg>